<?xml version="1.0" standalone="no"?>
<!DOCTYPE svg PUBLIC "-//W3C//DTD SVG 20010904//EN"
 "http://www.w3.org/TR/2001/REC-SVG-20010904/DTD/svg10.dtd">
<svg version="1.0" xmlns="http://www.w3.org/2000/svg"
 width="375.000000pt" height="360.000000pt" viewBox="0 0 375.000000 360.000000"
 preserveAspectRatio="xMidYMid meet">
<metadata>
Created by potrace 1.16, written by Peter Selinger 2001-2019
</metadata>
<g transform="translate(0.000000,360.000000) scale(0.100000,-0.100000)"
fill="#000000" stroke="none">
<path d="M1950 3383 c-30 -3 -59 -8 -65 -12 -5 -5 -23 -11 -40 -15 -16 -4 -46
-18 -66 -31 -20 -13 -90 -52 -155 -86 -138 -72 -244 -144 -364 -245 -240 -203
-285 -270 -296 -445 -5 -85 -3 -112 11 -149 10 -25 23 -90 31 -145 7 -55 18
-118 24 -140 6 -22 16 -60 22 -85 6 -25 17 -54 24 -65 10 -13 12 -34 8 -67 -8
-56 11 -142 39 -180 24 -33 38 -114 25 -144 -11 -23 -47 -44 -76 -44 -21 0
-276 -124 -317 -155 -16 -12 -51 -31 -77 -43 -49 -21 -102 -57 -150 -101 -21
-18 -40 -25 -78 -26 -28 -1 -55 -6 -60 -11 -11 -11 -17 -980 -6 -991 7 -8
1374 -5 1387 3 4 2 3 23 -2 46 -12 63 -11 65 16 72 18 5 25 13 25 31 0 22 3
23 38 19 20 -3 57 -10 81 -16 34 -9 46 -9 49 0 2 7 12 12 21 12 13 0 21 -14
29 -51 7 -28 12 -63 12 -79 0 -16 6 -32 12 -37 18 -10 390 -5 402 7 4 4 5 25
2 45 -7 34 -22 54 -70 93 -22 17 -11 32 22 32 37 0 49 -10 68 -55 9 -21 32
-58 51 -82 l35 -43 395 0 c447 0 410 -10 336 86 -37 49 -37 49 -34 134 2 77
-1 92 -28 154 -17 37 -42 81 -56 97 -20 25 -23 37 -19 77 9 79 -10 223 -39
285 -31 69 -97 141 -157 173 -25 13 -67 38 -93 56 -44 28 -219 87 -259 88 -9
0 -23 9 -31 21 -18 25 -14 41 36 154 52 118 87 248 94 348 6 84 8 91 45 135
46 56 48 78 9 87 -32 7 -51 25 -74 70 -8 17 -24 39 -34 50 -10 11 -25 33 -33
48 -8 16 -26 41 -41 55 -21 22 -26 34 -22 60 3 17 11 32 17 32 7 0 37 -30 67
-67 l54 -67 6 37 c3 20 11 42 17 50 7 7 18 32 26 55 14 39 13 43 -7 74 -25 36
-63 47 -110 29 -20 -8 -27 -17 -27 -38 -1 -27 -1 -27 -16 -8 -8 11 -18 31 -21
45 -10 41 -24 53 -38 33 -10 -13 -16 -14 -26 -7 -34 27 -111 44 -154 34 -24
-5 -76 -9 -115 -8 -57 1 -77 5 -92 20 -10 10 -16 23 -13 28 3 5 1 27 -5 47 -9
33 -8 40 10 55 11 9 20 18 20 21 0 3 -20 13 -45 23 -47 17 -61 44 -23 44 l22
0 -22 20 c-12 12 -22 25 -22 30 0 22 21 60 33 60 7 0 20 8 28 18 31 36 127 83
176 87 49 3 126 -15 176 -42 26 -14 27 -13 37 12 24 64 8 120 -54 185 -24 25
-53 61 -65 81 -23 40 -79 72 -124 72 -15 0 -23 3 -17 7 17 10 -9 27 -60 39
-44 10 -126 11 -240 4z m464 -1212 c16 -17 15 -20 -10 -50 -33 -40 -81 -66
-97 -53 -7 5 -28 13 -47 17 -19 4 -53 18 -75 30 -22 12 -51 25 -65 28 -14 4
-34 13 -45 22 -19 15 -18 16 25 10 63 -9 247 -1 259 11 10 10 39 3 55 -15z"/>
</g>
</svg>
